<?xml version="1.0" standalone="no"?>
<!DOCTYPE svg PUBLIC "-//W3C//DTD SVG 20010904//EN"
 "http://www.w3.org/TR/2001/REC-SVG-20010904/DTD/svg10.dtd">
<svg version="1.0" xmlns="http://www.w3.org/2000/svg"
 width="500.000000pt" height="500.000000pt" viewBox="0 0 500.000000 500.000000"
 preserveAspectRatio="xMidYMid meet">

<g transform="translate(0.000000,500.000000) scale(0.100000,-0.100000)"
fill="#000000" stroke="none">
<path d="M1079 3101 c-65 -36 -119 -116 -119 -178 0 -10 -25 -13 -89 -13 -68
0 -93 -4 -105 -16 -9 -8 -16 -17 -16 -18 0 -6 -100 -705 -105 -733 -4 -24 -1
-37 15 -53 20 -20 30 -20 504 -20 461 0 485 1 507 19 l24 19 -54 384 c-37 262
-59 389 -69 401 -12 14 -32 17 -103 17 l-89 0 -5 28 c-10 52 -52 117 -94 147
-54 38 -147 46 -202 16z m163 -108 c15 -16 30 -40 33 -55 l7 -28 -111 0 c-110
0 -111 0 -111 24 0 13 13 38 29 55 25 27 36 31 78 31 41 0 54 -5 75 -27z m59
-175 c53 -15 113 -69 133 -118 9 -23 14 -45 11 -50 -2 -4 -26 -11 -51 -15 -26
-3 -52 -9 -59 -11 -7 -3 -22 11 -34 31 -57 97 -223 80 -275 -28 -26 -55 -22
-182 7 -237 45 -85 146 -111 243 -64 34 16 39 24 42 57 l3 37 -70 0 -71 0 0
60 0 60 140 0 140 0 0 -130 0 -130 -38 -25 c-65 -43 -148 -66 -242 -66 -76 0
-91 3 -149 33 -116 59 -167 160 -159 311 7 129 51 208 144 263 74 43 186 52
285 22z"/>
<path d="M2300 2500 l0 -330 250 0 250 0 0 55 0 55 -185 0 -185 0 0 90 0 90
168 2 167 3 3 52 3 53 -168 2 -168 3 -3 73 -3 72 181 0 180 0 0 55 0 55 -245
0 -245 0 0 -330z"/>
<path d="M1835 2655 c-151 -54 -196 -314 -75 -435 72 -72 195 -88 295 -40 140
68 169 307 52 424 -24 24 -59 47 -83 54 -54 16 -139 15 -189 -3z m179 -96 c41
-32 56 -71 56 -144 0 -113 -48 -175 -135 -175 -88 0 -136 62 -136 175 0 110
46 165 136 165 38 0 60 -6 79 -21z"/>
<path d="M3005 2648 c-37 -13 -72 -44 -91 -80 -22 -42 -18 -46 41 -53 52 -7
57 -6 76 19 17 22 29 26 69 26 55 0 80 -18 80 -55 0 -26 5 -24 -144 -59 -112
-26 -150 -63 -150 -145 0 -85 62 -141 156 -141 43 0 120 29 132 49 11 18 24
13 28 -11 3 -21 9 -23 67 -26 58 -3 63 -1 55 15 -4 10 -10 99 -14 199 -6 205
-12 222 -83 255 -47 21 -170 25 -222 7z m175 -294 c0 -60 -40 -104 -94 -104
-61 0 -101 67 -61 100 13 11 121 47 148 49 4 1 7 -20 7 -45z"/>
<path d="M3507 2646 c-20 -8 -44 -20 -53 -27 -45 -37 -57 -122 -25 -175 23
-37 62 -57 172 -86 96 -25 111 -33 107 -62 -7 -49 -107 -62 -157 -20 -17 14
-31 31 -31 38 0 10 -14 11 -62 3 -35 -5 -65 -10 -67 -12 -1 -2 8 -22 20 -45
34 -60 93 -92 183 -98 94 -6 151 11 197 57 61 61 64 139 9 191 -27 26 -50 34
-200 77 -70 20 -89 45 -54 70 37 27 137 9 149 -27 5 -14 13 -15 65 -7 39 6 60
14 60 23 0 26 -71 93 -108 104 -51 14 -160 12 -205 -4z"/>
<path d="M3916 2583 c14 -38 54 -145 90 -240 41 -107 63 -180 59 -192 -3 -11
-15 -31 -26 -45 -17 -22 -29 -26 -71 -26 l-51 0 7 -37 c3 -21 6 -44 6 -50 0
-19 133 -17 170 2 16 8 38 28 49 44 16 22 231 587 231 607 0 2 -29 4 -64 4
l-64 0 -52 -157 c-29 -87 -55 -161 -59 -165 -4 -4 -31 66 -61 157 l-54 165
-68 0 -68 0 26 -67z"/>
</g>
</svg>
